<svg width="14" height="32" viewBox="0 0 14 32" fill="none" xmlns="http://www.w3.org/2000/svg">
<path d="M12.6405 2.63585C12.6405 2.93956 12.6405 3.24326 12.6405 3.56594C12.6405 3.79372 12.5678 3.96455 12.4041 4.1164C12.0586 4.43908 11.6403 4.60991 11.2038 4.7238C10.7855 4.85667 10.349 4.9326 9.91255 5.0275C9.74887 5.06547 9.69431 5.12241 9.69431 5.29324C9.69431 5.90065 9.69431 6.50805 9.69431 7.11545C9.69431 7.34323 9.78524 7.51406 9.9853 7.62795C10.9674 8.19739 11.804 8.95664 12.4769 9.86775C13.2407 10.8927 13.7317 12.0316 13.9136 13.3034C14.0409 14.1006 14.0045 14.9168 13.95 15.714C13.7863 17.5742 13.2043 19.2825 12.3496 20.9149C11.9131 21.7501 11.4766 22.5663 11.0583 23.4014C10.8037 23.895 10.64 24.4264 10.6036 24.9959C10.5673 25.3755 10.64 25.7362 10.7491 26.0778C11.0947 27.0459 11.4584 28.0139 11.8221 28.963C11.9495 29.3046 12.0949 29.6463 12.2223 29.988C12.4041 30.4435 12.295 30.8042 11.9131 31.1079C11.5312 31.4116 11.0765 31.5634 10.6218 31.6773C9.80343 31.8861 8.96685 31.962 8.11207 31.981C7.47554 32 6.83901 32 6.18429 32C5.12946 31.981 4.05645 31.9241 3.038 31.6014C2.67427 31.4875 2.32872 31.3546 2.03773 31.1079C1.65581 30.8042 1.56488 30.4435 1.72856 29.988C2.07411 29.0769 2.45603 28.1847 2.80157 27.2926C3.00162 26.7422 3.1653 26.1727 3.3108 25.5843C3.4381 25.0528 3.32898 24.5403 3.14712 24.0278C2.8925 23.3065 2.52877 22.6422 2.16504 21.9589C1.63763 20.9908 1.1284 20.0038 0.74648 18.9598C0.400934 18.0107 0.164507 17.0427 0.0553875 16.0367C0.000827573 15.2584 -0.0355457 14.4423 0.0553875 13.645C0.219067 12.1455 0.782853 10.7978 1.74675 9.62099C2.38328 8.84276 3.12893 8.17841 4.02008 7.66591C4.23832 7.55202 4.34744 7.36221 4.32925 7.11545C4.32925 6.52703 4.32925 5.91963 4.32925 5.33121C4.32925 5.14139 4.27469 5.08445 4.07464 5.04649C3.41992 4.9326 2.78338 4.78075 2.18323 4.49603C2.07411 4.43908 1.96499 4.38214 1.87405 4.32519C1.54669 4.1164 1.36483 3.85066 1.38301 3.43307C1.41939 2.86363 1.4012 2.27521 1.38301 1.70577C1.38301 1.49697 1.45576 1.32614 1.60125 1.19327C1.85587 0.946515 2.18323 0.794664 2.51059 0.661795C3.18349 0.396056 3.89277 0.263186 4.60205 0.16828C5.63869 -0.00255248 6.7117 -0.0215338 7.76653 0.0164289C9.03959 0.0733729 10.3127 0.206242 11.5312 0.661795C11.8585 0.775683 12.1677 0.927534 12.4223 1.17429C12.586 1.32614 12.6587 1.49697 12.6587 1.72475C12.6405 2.02845 12.6405 2.33215 12.6405 2.63585Z" fill="white"/>
</svg>
